# xmcd
#
# Track frame offsets:
#	150
#	14007
#	25877
#	35405
#	49145
#	63450
#	86610
#	109635
#	120615
#	132572
#	145427
#	154207
#
# Disc length: 2233 seconds
#
# Revision: 0
# Processed by: cddbd v1.5.1PL0 Copyright (c) Steve Scherf et al.
# Submitted via: dBpowerAMP V4.0
#
DISCID=aa08b70c
DTITLE=Hot Steam String Band - Point Blank
DYEAR=1995
DGENRE=Bluegrass
TTITLE0=Don´t cross the river
TTITLE1=Hold to a dream
TTITLE2=Walls
TTITLE3=Big sciota
TTITLE4=One of these trains
TTITLE5=Eleanor Rigby
TTITLE6=Long may you run
TTITLE7=I´ve just seen a face
TTITLE8=I´m free
TTITLE9=you´re in my heart
TTITLE10=Daybreak in Dixie
TTITLE11=We can work it out
EXTD=
EXTT0=
EXTT1=
EXTT2=
EXTT3=
EXTT4=
EXTT5=
EXTT6=
EXTT7=
EXTT8=
EXTT9=
EXTT10=
EXTT11=
PLAYORDER=
